<svg width="20" height="20" viewBox="0 0 20 20" fill="none" xmlns="http://www.w3.org/2000/svg">
<g clip-path="url(#clip0_393_210)">
<path d="M17.6751 13.2416C17.1449 14.4953 16.3157 15.6001 15.2599 16.4594C14.2042 17.3186 12.954 17.9061 11.6187 18.1706C10.2835 18.4351 8.90374 18.3684 7.60017 17.9764C6.29661 17.5845 5.10891 16.8792 4.1409 15.9222C3.1729 14.9651 2.45406 13.7856 2.04725 12.4866C1.64043 11.1876 1.55802 9.80868 1.80722 8.47047C2.05641 7.13226 2.62963 5.87547 3.47676 4.80997C4.32388 3.74447 5.41912 2.90271 6.66672 2.35828" stroke="#888EA8" stroke-width="1.5" stroke-linecap="round" stroke-linejoin="round"/>
<path d="M18.3333 9.99996C18.3333 8.90561 18.1178 7.82198 17.699 6.81093C17.2802 5.79988 16.6664 4.88122 15.8926 4.1074C15.1187 3.33358 14.2001 2.71975 13.189 2.30096C12.178 1.88217 11.0943 1.66663 10 1.66663V9.99996H18.3333Z" stroke="#888EA8" stroke-width="1.5" stroke-linecap="round" stroke-linejoin="round"/>
</g>
<defs>
<clipPath id="clip0_393_210">
<rect width="20" height="20" fill="white"/>
</clipPath>
</defs>
</svg>
